<?xml version="1.0" encoding="UTF-8"?>
<svg version="1.1" xmlns="http://www.w3.org/2000/svg" width="64" height="64">
<path d="M0 0 C1.39456452 0.00667256 2.78911118 0.01863093 4.18359375 0.03515625 C4.89451172 0.03966797 5.60542969 0.04417969 6.33789062 0.04882812 C8.09899388 0.06064761 9.86005411 0.07858362 11.62109375 0.09765625 C11.62109375 0.75765625 11.62109375 1.41765625 11.62109375 2.09765625 C16.24109375 2.09765625 20.86109375 2.09765625 25.62109375 2.09765625 C25.95109375 9.35765625 26.28109375 16.61765625 26.62109375 24.09765625 C33.225003 18.98510009 33.225003 18.98510009 35.62109375 15.09765625 C35.31268776 12.94490677 35.31268776 12.94490677 34.62109375 11.09765625 C35.85859375 10.76765625 37.09609375 10.43765625 38.37109375 10.09765625 C39.0671875 9.91203125 39.76328125 9.72640625 40.48046875 9.53515625 C42.62109375 9.09765625 42.62109375 9.09765625 46.62109375 9.09765625 C46.81403783 13.92125814 46.37856989 17.59412363 44.62109375 22.09765625 C43.87730469 21.85273438 43.13351563 21.6078125 42.3671875 21.35546875 C39.55012892 20.77059313 39.55012892 20.77059313 37.59375 22.71484375 C36.96339844 23.45992187 36.33304688 24.205 35.68359375 24.97265625 C31.99423815 28.99104356 31.99423815 28.99104356 28.12109375 30.09765625 C27.29609375 30.09765625 26.47109375 30.09765625 25.62109375 30.09765625 C25.62109375 31.08765625 25.62109375 32.07765625 25.62109375 33.09765625 C26.22171631 33.21359131 26.82233887 33.32952637 27.44116211 33.44897461 C30.14776234 33.97372096 32.85317423 34.50435772 35.55859375 35.03515625 C36.50412109 35.21755859 37.44964844 35.39996094 38.42382812 35.58789062 C39.77250977 35.85375977 39.77250977 35.85375977 41.1484375 36.125 C41.98109131 36.28734131 42.81374512 36.44968262 43.67163086 36.61694336 C45.62109375 37.09765625 45.62109375 37.09765625 46.62109375 38.09765625 C46.70809717 39.73238507 46.72810438 41.3707968 46.71875 43.0078125 C46.71391602 44.4918457 46.71391602 44.4918457 46.70898438 46.00585938 C46.69641602 47.56723633 46.69641602 47.56723633 46.68359375 49.16015625 C46.67908203 50.20494141 46.67457031 51.24972656 46.66992188 52.32617188 C46.65809288 54.91672285 46.64161064 57.50716184 46.62109375 60.09765625 C45.20507661 60.578739 43.78824938 61.05743766 42.37109375 61.53515625 C41.5821875 61.80199219 40.79328125 62.06882813 39.98046875 62.34375 C29.10630711 65.81844072 19.46247699 63.42773918 8.62109375 60.66015625 C7.28670718 60.33037168 5.95207267 60.00158865 4.6171875 59.67382812 C-5.02088648 57.27666614 -5.02088648 57.27666614 -7.37890625 56.09765625 C-7.37890625 55.43765625 -7.37890625 54.77765625 -7.37890625 54.09765625 C-8.01699219 54.10925781 -8.65507812 54.12085938 -9.3125 54.1328125 C-10.13878906 54.14183594 -10.96507812 54.15085938 -11.81640625 54.16015625 C-12.64011719 54.17175781 -13.46382812 54.18335938 -14.3125 54.1953125 C-16.37890625 54.09765625 -16.37890625 54.09765625 -17.37890625 53.09765625 C-17.4722433 51.50154643 -17.49635997 49.90132197 -17.49243164 48.30249023 C-17.49235611 47.28150742 -17.49228058 46.2605246 -17.49220276 45.20860291 C-17.48704147 44.09820145 -17.48188019 42.98779999 -17.4765625 41.84375 C-17.47514755 40.71316666 -17.4737326 39.58258331 -17.47227478 38.41773987 C-17.46665644 34.7901856 -17.45410083 31.16269201 -17.44140625 27.53515625 C-17.43639361 25.08268318 -17.4318303 22.63020915 -17.42773438 20.17773438 C-17.41668105 14.1510208 -17.39992509 8.12434286 -17.37890625 2.09765625 C-16.45207031 2.03707031 -15.52523438 1.97648438 -14.5703125 1.9140625 C-12.77400391 1.78837891 -12.77400391 1.78837891 -10.94140625 1.66015625 C-9.14896484 1.53833984 -9.14896484 1.53833984 -7.3203125 1.4140625 C-3.76277686 1.03137938 -3.7283597 0.10775606 0 0 Z " fill="#F29E27" transform="translate(17.37890625,-0.09765625)"/>
<path d="M0 0 C1.39456452 0.00667256 2.78911118 0.01863093 4.18359375 0.03515625 C4.89451172 0.03966797 5.60542969 0.04417969 6.33789062 0.04882812 C8.09899388 0.06064761 9.86005411 0.07858362 11.62109375 0.09765625 C11.62109375 0.75765625 11.62109375 1.41765625 11.62109375 2.09765625 C16.24109375 2.09765625 20.86109375 2.09765625 25.62109375 2.09765625 C25.62109375 9.35765625 25.62109375 16.61765625 25.62109375 24.09765625 C23.31109375 22.11765625 21.00109375 20.13765625 18.62109375 18.09765625 C16.02339718 17.53637264 16.02339718 17.53637264 13.62109375 19.09765625 C10.4644554 21.83071397 7.70449877 24.92576542 4.88085938 27.99414062 C4.29111328 28.61482422 3.70136719 29.23550781 3.09375 29.875 C2.57047119 30.44468506 2.04719238 31.01437012 1.50805664 31.60131836 C-0.37890625 33.09765625 -0.37890625 33.09765625 -6.37890625 35.09765625 C-6.70890625 41.36765625 -7.03890625 47.63765625 -7.37890625 54.09765625 C-10.34890625 54.09765625 -13.31890625 54.09765625 -16.37890625 54.09765625 C-17.37890625 53.09765625 -17.37890625 53.09765625 -17.49916077 51.04124451 C-17.49694016 50.1374556 -17.49471954 49.23366669 -17.49243164 48.30249023 C-17.49235611 47.28150742 -17.49228058 46.2605246 -17.49220276 45.20860291 C-17.48704147 44.09820145 -17.48188019 42.98779999 -17.4765625 41.84375 C-17.47514755 40.71316666 -17.4737326 39.58258331 -17.47227478 38.41773987 C-17.46665644 34.7901856 -17.45410083 31.16269201 -17.44140625 27.53515625 C-17.43639361 25.08268318 -17.4318303 22.63020915 -17.42773438 20.17773438 C-17.41668105 14.1510208 -17.39992509 8.12434286 -17.37890625 2.09765625 C-16.45207031 2.03707031 -15.52523438 1.97648438 -14.5703125 1.9140625 C-12.77400391 1.78837891 -12.77400391 1.78837891 -10.94140625 1.66015625 C-9.14896484 1.53833984 -9.14896484 1.53833984 -7.3203125 1.4140625 C-3.76277686 1.03137938 -3.7283597 0.10775606 0 0 Z " fill="#DDD6EE" transform="translate(17.37890625,-0.09765625)"/>
<path d="M0 0 C0 7.26 0 14.52 0 22 C-14.57905467 26.85968489 -23.28066032 26.32004572 -38 22.5625 C-39.33438657 22.23271543 -40.66902108 21.9039324 -42.00390625 21.57617188 C-51.64198023 19.17900989 -51.64198023 19.17900989 -54 18 C-54 17.01 -54 16.02 -54 15 C-49.05 15.99 -49.05 15.99 -44 17 C-43.67 15.35 -43.34 13.7 -43 12 C-40.87934754 9.65558565 -38.50577164 7.95905783 -36 6 C-36 10.29 -36 14.58 -36 19 C-32.7 19.66 -29.4 20.32 -26 21 C-26.33 19.68 -26.66 18.36 -27 17 C-29.49034386 15.70339566 -29.49034386 15.70339566 -32 15 C-31.21625 14.154375 -30.4325 13.30875 -29.625 12.4375 C-26.83068977 9.12074083 -25.92487099 6.20395906 -25 2 C-16.55178821 0.47387142 -8.58603431 -0.20689239 0 0 Z " fill="#D6702C" transform="translate(64,38)"/>
<path d="M0 0 C3.3 0 6.6 0 10 0 C10.433125 0.9075 10.86625 1.815 11.3125 2.75 C12.70517271 5.43218449 14.11112757 7.66139605 16 10 C15.01 10 14.02 10 13 10 C13 10.66 13 11.32 13 12 C17.95 12 22.9 12 28 12 C24.62788749 16.0638279 21.15026216 19.99547459 17.5 23.8125 C16.7884375 24.56144531 16.076875 25.31039063 15.34375 26.08203125 C13 28 13 28 7 30 C6.67 34.95 6.34 39.9 6 45 C4.02 45 2.04 45 0 45 C0 30.15 0 15.3 0 0 Z " fill="#E5E4F1" transform="translate(4,5)"/>
<path d="M0 0 C0 0.33 0 0.66 0 1 C-0.87736816 1.08302368 -0.87736816 1.08302368 -1.77246094 1.16772461 C-4.43195108 1.42117265 -7.09096832 1.67928825 -9.75 1.9375 C-11.13058594 2.06801758 -11.13058594 2.06801758 -12.5390625 2.20117188 C-13.42851563 2.28818359 -14.31796875 2.37519531 -15.234375 2.46484375 C-16.05131836 2.543396 -16.86826172 2.62194824 -17.70996094 2.70288086 C-19.87120901 2.98329012 -21.90017313 3.42444505 -24 4 C-24.2475 5.051875 -24.495 6.10375 -24.75 7.1875 C-25.76700786 10.8133541 -27.45373429 13.19910772 -30 16 C-28.35 16.66 -26.7 17.32 -25 18 C-25 19.32 -25 20.64 -25 22 C-31.89776047 22.31353457 -31.89776047 22.31353457 -35 20 C-35.609375 17.1796875 -35.609375 17.1796875 -35.75 13.875 C-35.83507812 12.23144531 -35.83507812 12.23144531 -35.921875 10.5546875 C-35.96054687 9.29011719 -35.96054687 9.29011719 -36 8 C-38.31 9.98 -40.62 11.96 -43 14 C-45.475 13.01 -45.475 13.01 -48 12 C-47.60167969 11.54109375 -47.20335937 11.0821875 -46.79296875 10.609375 C-44.08857938 7.47728415 -41.42008229 4.36122541 -39 1 C-39.66 0.34 -40.32 -0.32 -41 -1 C-26.69707179 -5.98939356 -14.30266535 -3.55977449 0 0 Z " fill="#F0981E" transform="translate(63,37)"/>
<path d="M0 0 C0 7.26 0 14.52 0 22 C-14.57905467 26.85968489 -23.28066032 26.32004572 -38 22.5625 C-39.33438657 22.23271543 -40.66902108 21.9039324 -42.00390625 21.57617188 C-51.64198023 19.17900989 -51.64198023 19.17900989 -54 18 C-54 17.01 -54 16.02 -54 15 C-49.05 15.99 -49.05 15.99 -44 17 C-43.67 15.35 -43.34 13.7 -43 12 C-40.87934754 9.65558565 -38.50577164 7.95905783 -36 6 C-36 10.95 -36 15.9 -36 21 C-27.55607736 21.88692114 -27.55607736 21.88692114 -20.25 18.5 C-19.5075 17.675 -18.765 16.85 -18 16 C-17.87625 16.969375 -17.7525 17.93875 -17.625 18.9375 C-17.41875 19.948125 -17.2125 20.95875 -17 22 C-16.34 22.33 -15.68 22.66 -15 23 C-15 22.01 -15 21.02 -15 20 C-11.33694766 19.25073929 -8.57644848 18.7619986 -5 20 C-3.7763075 14.70070357 -3.64298347 9.40076732 -3.37890625 3.984375 C-3.19134766 2.50710937 -3.19134766 2.50710937 -3 1 C-1 0 -1 0 0 0 Z " fill="#AC5131" transform="translate(64,38)"/>
<path d="M0 0 C0.19294408 4.82360189 -0.24252386 8.49646738 -2 13 C-2.74378906 12.75507813 -3.48757812 12.51015625 -4.25390625 12.2578125 C-7.07096483 11.67293688 -7.07096483 11.67293688 -9.02734375 13.6171875 C-9.65769531 14.36226562 -10.28804687 15.10734375 -10.9375 15.875 C-13.31403112 18.38923666 -14.8786568 19.9393284 -18 21.5 C-22.41261711 20.76456382 -24.36877354 18.05814927 -27.265625 14.78515625 C-27.83796875 14.19605469 -28.4103125 13.60695313 -29 13 C-29.66 13 -30.32 13 -31 13 C-32.08314329 14.44907008 -33.11714428 15.93509183 -34.125 17.4375 C-37.342419 21.75900173 -37.342419 21.75900173 -40.23828125 22.8203125 C-42.4375 23.0625 -42.4375 23.0625 -46 23 C-44.02925574 20.63510689 -42.03643562 18.30767335 -40 16 C-39.33871094 15.2471875 -38.67742188 14.494375 -37.99609375 13.71875 C-37.31675781 12.9865625 -36.63742188 12.254375 -35.9375 11.5 C-35.30714844 10.8090625 -34.67679688 10.118125 -34.02734375 9.40625 C-32 8 -32 8 -29.4921875 8.08984375 C-26.82123605 9.06528527 -25.26893417 10.14431557 -23.1875 12.0625 C-22.58292969 12.61035156 -21.97835937 13.15820312 -21.35546875 13.72265625 C-20.90816406 14.14417969 -20.46085937 14.56570312 -20 15 C-18.87105124 14.06725891 -17.74699124 13.12859878 -16.625 12.1875 C-15.99851562 11.66542969 -15.37203125 11.14335937 -14.7265625 10.60546875 C-12.7778952 8.91774261 -12.7778952 8.91774261 -11 6 C-11.30840599 3.84725052 -11.30840599 3.84725052 -12 2 C-10.7625 1.67 -9.525 1.34 -8.25 1 C-7.55390625 0.814375 -6.8578125 0.62875 -6.140625 0.4375 C-4 0 -4 0 0 0 Z " fill="#E0212F" transform="translate(64,9)"/>
<path d="M0 0 C3.3 0 6.6 0 10 0 C10.99 2.31 11.98 4.62 13 7 C8.545 7.495 8.545 7.495 4 8 C4 9.98 4 11.96 4 14 C4.99 14.33 5.98 14.66 7 15 C6.01 15 5.02 15 4 15 C4 16.65 4 18.3 4 20 C5.32 20.33 6.64 20.66 8 21 C6.68 21 5.36 21 4 21 C4 22.98 4 24.96 4 27 C4.99 27 5.98 27 7 27 C6.67 32.94 6.34 38.88 6 45 C4.02 45 2.04 45 0 45 C0 30.15 0 15.3 0 0 Z " fill="#F0F4FB" transform="translate(4,5)"/>
<path d="M0 0 C4.62 0 9.24 0 14 0 C14 0.99 14 1.98 14 3 C10.7 3 7.4 3 4 3 C4 17.85 4 32.7 4 48 C5.98 48 7.96 48 10 48 C10 49.32 10 50.64 10 52 C8.52093108 52.02689216 7.04172517 52.04634621 5.5625 52.0625 C4.73878906 52.07410156 3.91507812 52.08570313 3.06640625 52.09765625 C1 52 1 52 0 51 C-0.09333705 49.40389018 -0.11745372 47.80366572 -0.11352539 46.20483398 C-0.11344986 45.18385117 -0.11337433 44.16286835 -0.11329651 43.11094666 C-0.10813522 42.0005452 -0.10297394 40.89014374 -0.09765625 39.74609375 C-0.0962413 38.61551041 -0.09482635 37.48492706 -0.09336853 36.32008362 C-0.08775019 32.69252935 -0.07519458 29.06503576 -0.0625 25.4375 C-0.05748736 22.98502693 -0.05292405 20.5325529 -0.04882812 18.08007812 C-0.0377748 12.05336187 -0.02049788 6.02669124 0 0 Z " fill="#91D9FC" transform="translate(0,2)"/>
<path d="M0 0 C1.60294922 0.01353516 1.60294922 0.01353516 3.23828125 0.02734375 C4.04652344 0.03894531 4.85476562 0.05054688 5.6875 0.0625 C6.0175 0.7225 6.3475 1.3825 6.6875 2.0625 C4.88152344 2.39121094 4.88152344 2.39121094 3.0390625 2.7265625 C1.46325776 3.04547536 -0.1122486 3.36586507 -1.6875 3.6875 C-2.4815625 3.82800781 -3.275625 3.96851563 -4.09375 4.11328125 C-6.32645876 4.58631277 -8.26247712 5.05556181 -10.3125 6.0625 C-11.72094651 8.95440405 -11.72094651 8.95440405 -12.3125 12.0625 C-14.0390625 13.9609375 -14.0390625 13.9609375 -15.9375 15.4375 C-16.88496094 16.19160156 -16.88496094 16.19160156 -17.8515625 16.9609375 C-18.33367188 17.32445313 -18.81578125 17.68796875 -19.3125 18.0625 C-21.7875 17.0725 -21.7875 17.0725 -24.3125 16.0625 C-23.91417969 15.60359375 -23.51585937 15.1446875 -23.10546875 14.671875 C-20.40107938 11.53978415 -17.73258229 8.42372541 -15.3125 5.0625 C-15.9725 4.4025 -16.6325 3.7425 -17.3125 3.0625 C-11.36564437 0.98801548 -6.31087213 -0.06935024 0 0 Z " fill="#DD7B27" transform="translate(39.3125,32.9375)"/>
<path d="M0 0 C4.95 0 9.9 0 15 0 C14.125 9.875 14.125 9.875 13 11 C11.14712498 11.07226502 9.29166122 11.0838122 7.4375 11.0625 C6.42558594 11.05347656 5.41367187 11.04445313 4.37109375 11.03515625 C3.58863281 11.02355469 2.80617188 11.01195312 2 11 C1.47007308 9.54494642 0.9513211 8.08581873 0.4375 6.625 C0.14746094 5.81289062 -0.14257812 5.00078125 -0.44140625 4.1640625 C-1 2 -1 2 0 0 Z " fill="#EEC081" transform="translate(14,0)"/>
<path d="M0 0 C0 0.33 0 0.66 0 1 C-8.91 2.485 -8.91 2.485 -18 4 C-17.67 4.33 -17.34 4.66 -17 5 C-16.61048183 8.1214091 -16.64781316 9.52177675 -18.5390625 12.08984375 C-20.63644948 13.94764158 -22.56625944 15.60430649 -25 17 C-28.5 16.4375 -28.5 16.4375 -31 15 C-30.21625 14.154375 -29.4325 13.30875 -28.625 12.4375 C-25.83068977 9.12074083 -24.92487099 6.20395906 -24 2 C-15.92437827 0.56205146 -8.2056037 -0.29599372 0 0 Z " fill="#E28225" transform="translate(63,38)"/>
<path d="M0 0 C0.33 0.66 0.66 1.32 1 2 C0.01 2 -0.98 2 -2 2 C-2 2.66 -2 3.32 -2 4 C2.95 4 7.9 4 13 4 C10 8 10 8 7.22265625 8.5390625 C6.17980469 8.56742188 5.13695312 8.59578125 4.0625 8.625 C0.13776152 8.75144758 -2.60501638 8.95482915 -6 11 C-5.67 10.01 -5.34 9.02 -5 8 C-6.98 7.34 -8.96 6.68 -11 6 C-11 4.02 -11 2.04 -11 0 C-7.02389268 -0.83220851 -3.9167686 -1.23098442 0 0 Z " fill="#EDF1F6" transform="translate(19,13)"/>
<path d="M0 0 C2.81936446 1.07851878 3.92880561 2.14449336 5.7734375 4.50390625 C6.28519531 5.14457031 6.79695313 5.78523438 7.32421875 6.4453125 C7.69933594 6.93902344 8.07445313 7.43273437 8.4609375 7.94140625 C7.8009375 7.94140625 7.1409375 7.94140625 6.4609375 7.94140625 C6.1309375 8.60140625 5.8009375 9.26140625 5.4609375 9.94140625 C4.6771875 9.11640625 3.8934375 8.29140625 3.0859375 7.44140625 C0.82372486 4.71152119 0.82372486 4.71152119 -1.5390625 4.94140625 C-2.62220579 6.39047633 -3.65620678 7.87649808 -4.6640625 9.37890625 C-7.8814815 13.70040798 -7.8814815 13.70040798 -10.77734375 14.76171875 C-12.9765625 15.00390625 -12.9765625 15.00390625 -16.5390625 14.94140625 C-14.56831824 12.57651314 -12.57549812 10.2490796 -10.5390625 7.94140625 C-9.87777344 7.18859375 -9.21648438 6.43578125 -8.53515625 5.66015625 C-7.85582031 4.92796875 -7.17648438 4.19578125 -6.4765625 3.44140625 C-5.84621094 2.75046875 -5.21585938 2.05953125 -4.56640625 1.34765625 C-2.5390625 -0.05859375 -2.5390625 -0.05859375 0 0 Z " fill="#ED3344" transform="translate(34.5390625,17.05859375)"/>
<path d="M0 0 C4.62 0 9.24 0 14 0 C14 7.26 14 14.52 14 22 C12.68 21.01 11.36 20.02 10 19 C9.70438924 16.12961948 9.62056984 13.66245255 9.75 10.8125 C9.76804687 10.06291016 9.78609375 9.31332031 9.8046875 8.54101562 C9.85175891 6.6934629 9.92350234 4.84656841 10 3 C6.7 3 3.4 3 0 3 C0 2.01 0 1.02 0 0 Z " fill="#1CB4F3" transform="translate(29,2)"/>
<path d="M0 0 C4.05726008 1.56048464 7.47623615 4.4835557 10 8 C10 9.32 10 10.64 10 12 C4.2190275 11.36934845 -1.3443706 10.34844868 -7 9 C-6.02180976 7.68677212 -5.0424189 6.37443848 -4.0625 5.0625 C-3.51722656 4.33160156 -2.97195312 3.60070312 -2.41015625 2.84765625 C-1 1 -1 1 0 0 Z " fill="#C1A0D0" transform="translate(33,21)"/>
<path d="M0 0 C0.08121924 1.60332791 0.13929134 3.20784026 0.1875 4.8125 C0.23970703 6.15248047 0.23970703 6.15248047 0.29296875 7.51953125 C0 10 0 10 -1.2421875 11.7734375 C-4.47706334 14.03066197 -8.14402079 14.02623115 -12 14 C-15.5625 13.0625 -15.5625 13.0625 -18 12 C-18 11.01 -18 10.02 -18 9 C-13.05 9.99 -13.05 9.99 -8 11 C-7.67 9.35 -7.34 7.7 -7 6 C-5.625 4.19921875 -5.625 4.19921875 -4 2.6875 C-3.46375 2.17574219 -2.9275 1.66398437 -2.375 1.13671875 C-1 0 -1 0 0 0 Z " fill="#BC5E31" transform="translate(28,44)"/>
<path d="M0 0 C0.82371094 0.17144531 1.64742187 0.34289063 2.49609375 0.51953125 C4.66998701 0.99093712 6.83629646 1.48411698 9 2 C9 2.33 9 2.66 9 3 C8.42032471 3.0501123 7.84064941 3.10022461 7.2434082 3.15185547 C4.59900423 3.38497534 1.95581713 3.62987578 -0.6875 3.875 C-2.05551758 3.99294922 -2.05551758 3.99294922 -3.45117188 4.11328125 C-9.95580355 4.67237655 -9.95580355 4.67237655 -16 7 C-16.33 7.66 -16.66 8.32 -17 9 C-17.66 9 -18.32 9 -19 9 C-18.67 7.35 -18.34 5.7 -18 4 C-16.35 3.67 -14.7 3.34 -13 3 C-15.31 3 -17.62 3 -20 3 C-15.03866417 -1.96133583 -6.44472975 -1.35351742 0 0 Z " fill="#F4A11D" transform="translate(54,35)"/>
<path d="M0 0 C1.39456452 0.00667256 2.78911118 0.01863093 4.18359375 0.03515625 C4.89451172 0.03966797 5.60542969 0.04417969 6.33789062 0.04882812 C8.09899388 0.06064761 9.86005411 0.07858362 11.62109375 0.09765625 C10.62109375 2.09765625 9.62109375 4.09765625 8.62109375 6.09765625 C7.18369862 6.12477691 5.74615512 6.14410692 4.30859375 6.16015625 C3.10783203 6.17755859 3.10783203 6.17755859 1.8828125 6.1953125 C-0.37890625 6.09765625 -0.37890625 6.09765625 -3.37890625 5.09765625 C-4.12890625 3.09765625 -4.12890625 3.09765625 -4.37890625 1.09765625 C-3.37890625 0.09765625 -3.37890625 0.09765625 0 0 Z " fill="#FCDB68" transform="translate(17.37890625,-0.09765625)"/>
<path d="M0 0 C-2.60356241 0.50333542 -5.20776651 1.00279378 -7.8125 1.5 C-8.55048828 1.64308594 -9.28847656 1.78617188 -10.04882812 1.93359375 C-13.07794391 2.50926281 -15.909196 3 -19 3 C-19 4.32 -19 5.64 -19 7 C-19.99 7 -20.98 7 -22 7 C-22 5.35 -22 3.7 -22 2 C-20.35 1.34 -18.7 0.68 -17 0 C-17.33 -0.66 -17.66 -1.32 -18 -2 C-11.912871 -3.767231 -5.51497407 -3.06387448 0 0 Z " fill="#EFB03F" transform="translate(39,33)"/>
<path d="M0 0 C3.375 -0.125 3.375 -0.125 7 0 C7.66 0.66 8.32 1.32 9 2 C11.06874034 2.6425235 11.06874034 2.6425235 13 3 C9.92000054 6.67230705 7.7517398 7.56802365 3 8 C3 7.34 3 6.68 3 6 C2.01 6 1.02 6 0 6 C0 4.02 0 2.04 0 0 Z " fill="#E5DEEB" transform="translate(8,26)"/>
<path d="M0 0 C0.33 0 0.66 0 1 0 C1 6.6 1 13.2 1 20 C-3.287325 21.42910833 -6.07971175 22.27673339 -10.375 22.625 C-11.24898437 22.69976562 -12.12296875 22.77453125 -13.0234375 22.8515625 C-13.67570312 22.90054688 -14.32796875 22.94953125 -15 23 C-14.67 22.34 -14.34 21.68 -14 21 C-13.34 21.33 -12.68 21.66 -12 22 C-12 21.01 -12 20.02 -12 19 C-8.33694766 18.25073929 -5.57644848 17.7619986 -2 19 C-1.0672582 14.900639 -0.71174738 10.87956712 -0.4375 6.6875 C-0.35371094 5.43324219 -0.26992188 4.17898437 -0.18359375 2.88671875 C-0.12300781 1.93410156 -0.06242187 0.98148438 0 0 Z " fill="#AF5C37" transform="translate(61,39)"/>
<path d="M0 0 C0.33 0.66 0.66 1.32 1 2 C-6.9446047 3.89231726 -13.91027535 4.04474629 -22 3 C-22 2.67 -22 2.34 -22 2 C-14.58569409 0.16282685 -7.62314474 -0.23576736 0 0 Z " fill="#E78C24" transform="translate(45,33)"/>
<path d="M0 0 C3.125 0.375 3.125 0.375 6 1 C6 2.98 6 4.96 6 7 C3.69 6.67 1.38 6.34 -1 6 C-1.625 4.125 -1.625 4.125 -2 2 C-1.34 1.34 -0.68 0.68 0 0 Z " fill="#DED7EA" transform="translate(32,25)"/>
<path d="M0 0 C2.64 0.33 5.28 0.66 8 1 C8 2.65 8 4.3 8 6 C5.36 5.67 2.72 5.34 0 5 C0 3.35 0 1.7 0 0 Z " fill="#D9C2CB" transform="translate(12,49)"/>
<path d="M0 0 C2.31 0.33 4.62 0.66 7 1 C7.33 2.65 7.66 4.3 8 6 C2.25 6.125 2.25 6.125 0 5 C0 3.35 0 1.7 0 0 Z " fill="#D7C4D6" transform="translate(30,53)"/>
<path d="M0 0 C3.3 0.33 6.6 0.66 10 1 C10 2.32 10 3.64 10 5 C7.03 5 4.06 5 1 5 C0.67 3.35 0.34 1.7 0 0 Z " fill="#33BCF5" transform="translate(0,49)"/>
<path d="M0 0 C0.33 0.99 0.66 1.98 1 3 C-3.67118644 8.74915254 -3.67118644 8.74915254 -7.296875 9.43359375 C-10.8376835 9.43937938 -13.62512845 9.12495718 -17 8 C-17 7.34 -17 6.68 -17 6 C-16.35933594 6.15339844 -15.71867187 6.30679688 -15.05859375 6.46484375 C-9.66839035 7.51399177 -9.66839035 7.51399177 -4.77734375 5.5078125 C-3.05355403 3.74508708 -1.48260807 1.96862859 0 0 Z " fill="#C66734" transform="translate(45,51)"/>
<path d="M0 0 C3.63 0 7.26 0 11 0 C10.67 1.32 10.34 2.64 10 4 C6.7 3.67 3.4 3.34 0 3 C0 2.01 0 1.02 0 0 Z " fill="#5FCEFA" transform="translate(29,2)"/>
<path d="M0 0 C0.71484375 1.765625 0.71484375 1.765625 1 4 C-0.43359375 5.921875 -0.43359375 5.921875 -2.4375 7.75 C-3.42556641 8.67039062 -3.42556641 8.67039062 -4.43359375 9.609375 C-5.20896484 10.29773438 -5.20896484 10.29773438 -6 11 C-6.71484375 9.234375 -6.71484375 9.234375 -7 7 C-5.56640625 5.078125 -5.56640625 5.078125 -3.5625 3.25 C-2.90378906 2.63640625 -2.24507812 2.0228125 -1.56640625 1.390625 C-1.04949219 0.93171875 -0.53257813 0.4728125 0 0 Z " fill="#CD6A2D" transform="translate(27,44)"/>
<path d="M0 0 C0.66 0 1.32 0 2 0 C2 0.66 2 1.32 2 2 C4.97 2 7.94 2 11 2 C11 1.34 11 0.68 11 0 C11.66 0 12.32 0 13 0 C12.67 1.32 12.34 2.64 12 4 C8.37 4 4.74 4 1 4 C0.67 2.68 0.34 1.36 0 0 Z " fill="#5D5B61" transform="translate(15,7)"/>
<path d="M0 0 C0.33 0 0.66 0 1 0 C1 6.6 1 13.2 1 20 C-0.32 20.33 -1.64 20.66 -3 21 C-2.52433594 19.75863281 -2.52433594 19.75863281 -2.0390625 18.4921875 C-0.90524027 14.68152181 -0.55838311 11.06773688 -0.375 7.125 C-0.33632813 6.43664063 -0.29765625 5.74828125 -0.2578125 5.0390625 C-0.16451834 3.35976754 -0.08121762 1.67992233 0 0 Z " fill="#C05A34" transform="translate(61,39)"/>
<path d="M0 0 C-3.4037522 2.26916813 -5.98210689 2.67020855 -9.94140625 3.33984375 C-12.3723586 3.8837067 -12.3723586 3.8837067 -14 7 C-14.66 7 -15.32 7 -16 7 C-15.67 5.35 -15.34 3.7 -15 2 C-9.92523206 0.73694665 -5.27203646 -0.27036084 0 0 Z " fill="#F5CA54" transform="translate(51,37)"/>
<path d="M0 0 C2.31 0 4.62 0 7 0 C7 0.66 7 1.32 7 2 C6.34 2 5.68 2 5 2 C5 2.99 5 3.98 5 5 C3.35 5 1.7 5 0 5 C0 3.35 0 1.7 0 0 Z " fill="#B4BFA1" transform="translate(8,13)"/>
<path d="M0 0 C2.31 0 4.62 0 7 0 C6.34 1.65 5.68 3.3 5 5 C3.35 5 1.7 5 0 5 C0 3.35 0 1.7 0 0 Z " fill="#B4BEA1" transform="translate(8,20)"/>
<path d="M0 0 C0.33 0 0.66 0 1 0 C1 1.98 1 3.96 1 6 C-5.15234375 5.4140625 -5.15234375 5.4140625 -7 5 C-7.33 4.34 -7.66 3.68 -8 3 C-6.865625 2.690625 -5.73125 2.38125 -4.5625 2.0625 C-1.21224901 1.37075469 -1.21224901 1.37075469 0 0 Z " fill="#A54C2F" transform="translate(27,54)"/>
<path d="M0 0 C2.475 0.99 2.475 0.99 5 2 C3.35 3.65 1.7 5.3 0 7 C0 4.69 0 2.38 0 0 Z " fill="#EB8D20" transform="translate(20,36)"/>
<path d="M0 0 C2.31 0 4.62 0 7 0 C6.3125 1.9375 6.3125 1.9375 5 4 C2.375 4.75 2.375 4.75 0 5 C0 3.35 0 1.7 0 0 Z " fill="#B0BC9A" transform="translate(8,26)"/>
<path d="M0 0 C4.29 0 8.58 0 13 0 C13 0.66 13 1.32 13 2 C6.565 2.495 6.565 2.495 0 3 C0 2.01 0 1.02 0 0 Z " fill="#FEEFA7" transform="translate(14,0)"/>
<path d="M0 0 C2 1.25 2 1.25 4 3 C4 4.32 4 5.64 4 7 C2.68 7 1.36 7 0 7 C0 4.69 0 2.38 0 0 Z " fill="#18ABE8" transform="translate(39,26)"/>
<path d="M0 0 C2.00720923 0.28674418 4.0085944 0.61866701 6 1 C5.67 2.32 5.34 3.64 5 5 C5 4.01 5 3.02 5 2 C3.68 2 2.36 2 1 2 C1.33 2.99 1.66 3.98 2 5 C0.68 5 -0.64 5 -2 5 C-1.125 1.125 -1.125 1.125 0 0 Z " fill="#D2C6E7" transform="translate(32,25)"/>
<path d="M0 0 C1.65 0 3.3 0 5 0 C5.33 1.32 5.66 2.64 6 4 C3.03 3.505 3.03 3.505 0 3 C0 2.01 0 1.02 0 0 Z " fill="#E7E6F5" transform="translate(13,50)"/>
<path d="M0 0 C2.475 0.495 2.475 0.495 5 1 C5 1.99 5 2.98 5 4 C3.35 4 1.7 4 0 4 C0 2.68 0 1.36 0 0 Z " fill="#EBE6EA" transform="translate(30,53)"/>
<path d="M0 0 C1.98 0 3.96 0 6 0 C6 0.99 6 1.98 6 3 C4.02 3 2.04 3 0 3 C0 2.01 0 1.02 0 0 Z " fill="#D2C5E7" transform="translate(4,47)"/>
<path d="M0 0 C0 2.31 0 4.62 0 7 C-1.32 6.01 -2.64 5.02 -4 4 C-3.67 3.01 -3.34 2.02 -3 1 C-1 0 -1 0 0 0 Z " fill="#29ACE7" transform="translate(43,17)"/>
</svg>
